Run_20002
nRows=4
nColumns=164

# SIMM Motion File Header:
name Run_20002
datacolumns 164
datarows 4
otherdata 1
range 2.75000000 2.78000000
endheader
time	pelvis_tilt	pelvis_list	pelvis_rotation	pelvis_tx	pelvis_ty	pelvis_tz	hip_flexion_r	hip_adduction_r	hip_rotation_r	knee_angle_r	ankle_angle_r	hip_flexion_l	hip_adduction_l	hip_rotation_l	knee_angle_l	ankle_angle_l	lumbar_extension	lumbar_bending	lumbar_rotation	arm_flex_r	arm_add_r	arm_rot_r	elbow_flex_r	pro_sup_r	arm_flex_l	arm_add_l	arm_rot_l	elbow_flex_l	pro_sup_l	subtalar_angle_r	mtp_angle_r	subtalar_angle_l	mtp_angle_l	wrist_flex_r	wrist_dev_r	wrist_flex_l	wrist_dev_l	LASI_tx	LASI_ty	LASI_tz	RASI_tx	RASI_ty	RASI_tz	LPSI_tx	LPSI_ty	LPSI_tz	RPSI_tx	RPSI_ty	RPSI_tz	RTH1_tx	RTH1_ty	RTH1_tz	RTH2_tx	RTH2_ty	RTH2_tz	RTH3_tx	RTH3_ty	RTH3_tz	LTH1_tx	LTH1_ty	LTH1_tz	LTH2_tx	LTH2_ty	LTH2_tz	LTH3_tx	LTH3_ty	LTH3_tz	RTB1_tx	RTB1_ty	RTB1_tz	RTB2_tx	RTB2_ty	RTB2_tz	RTB3_tx	RTB3_ty	RTB3_tz	LTB1_tx	LTB1_ty	LTB1_tz	LTB2_tx	LTB2_ty	LTB2_tz	LTB3_tx	LTB3_ty	LTB3_tz	RCAL_tx	RCAL_ty	RCAL_tz	RTOE_tx	RTOE_ty	RTOE_tz	RMT5_tx	RMT5_ty	RMT5_tz	LCAL_tx	LCAL_ty	LCAL_tz	LTOE_tx	LTOE_ty	LTOE_tz	LMT5_tx	LMT5_ty	LMT5_tz	LACR_tx	LACR_ty	LACR_tz	RACR_tx	RACR_ty	RACR_tz	CLAV_tx	CLAV_ty	CLAV_tz	C7_tx	C7_ty	C7_tz	RUA1_tx	RUA1_ty	RUA1_tz	RUA2_tx	RUA2_ty	RUA2_tz	RUA3_tx	RUA3_ty	RUA3_tz	RLEL_tx	RLEL_ty	RLEL_tz	RMEL_tx	RMEL_ty	RMEL_tz	LUA1_tx	LUA1_ty	LUA1_tz	LUA2_tx	LUA2_ty	LUA2_tz	LUA3_tx	LUA3_ty	LUA3_tz	LLEL_tx	LLEL_ty	LLEL_tz	LMEL_tx	LMEL_ty	LMEL_tz	RFAsuperior_tx	RFAsuperior_ty	RFAsuperior_tz	RFAradius_tx	RFAradius_ty	RFAradius_tz	RFAulna_tx	RFAulna_ty	RFAulna_tz	LFAsuperior_tx	LFAsuperior_ty	LFAsuperior_tz	LFAradius_tx	LFAradius_ty	LFAradius_tz	LFAulna_tx	LFAulna_ty	LFAulna_tz
      2.75000000	     -0.66923671	     -5.71446483	      1.80990638	      0.92923762	      0.94088223	     -0.30669656	     13.55907827	      8.76793701	    -10.41200548	    -40.03126723	     24.13202201	     26.55127581	     -3.75008915	      4.75180439	    -86.24320721	     -3.13839445	    -11.30515406	      7.82529314	      2.51901100	    -21.47997319	    -22.68441919	     -1.10224509	     95.08769860	     88.79760348	    -18.15265044	    -22.12846184	      2.11897988	    105.19804618	    116.43651319	      0.00000000	      0.00000000	      0.00000000	      0.00000000	      0.00000000	      0.00000000	      0.00000000	      0.00000000	      0.93462134	      0.95475255	     -0.43087431	      0.93822144	      0.97146320	     -0.19241295	      0.77200248	      0.99357344	     -0.35817684	      0.76701593	      0.99827851	     -0.25901110	      0.90664643	      0.72927593	     -0.13172608	      0.97678599	      0.65389997	     -0.14913808	      0.93037325	      0.55531351	     -0.16866810	      0.93726507	      0.75960520	     -0.47280380	      1.02337938	      0.67595825	     -0.46368901	      0.99984119	      0.56206813	     -0.44918483	      0.93120144	      0.34191690	     -0.24941305	      0.87381340	      0.27775529	     -0.20588789	      0.84209022	      0.18094450	     -0.27725362	      0.97373960	      0.38895364	     -0.38623194	      0.87841662	      0.38577130	     -0.45058921	      0.80279919	      0.30015903	     -0.38571891	      0.69985681	      0.10883254	     -0.30088079	      0.92239733	      0.06786479	     -0.30519258	      0.86774410	      0.05000273	     -0.20447718	      0.65291950	      0.32412470	     -0.36879756	      0.72753411	      0.11818918	     -0.38389173	      0.68671556	      0.15762837	     -0.47936035	      0.92678537	      1.44442356	     -0.45780304	      0.93162396	      1.42686380	     -0.15296786	      1.01368763	      1.36186289	     -0.29136833	      0.88377337	      1.47238267	     -0.30018165	      0.87555732	      1.32143977	     -0.05838689	      0.80127216	      1.27042253	     -0.07487980	      0.83412139	      1.20998318	     -0.01080659	      0.80042002	      1.15203262	      0.02084833	      0.75979307	      1.13302012	     -0.04204660	      0.85182088	      1.34329171	     -0.54396860	      0.79037388	      1.29166944	     -0.50935504	      0.81725902	      1.25587213	     -0.58481976	      0.77992021	      1.18163517	     -0.61575383	      0.75290492	      1.15616118	     -0.55196187	      0.90086348	      1.09690096	     -0.00373591	      0.99590682	      1.04950374	     -0.09563738	      0.95986973	      0.99448786	     -0.06273109	      0.89362901	      1.15424823	     -0.58531743	      0.99374756	      1.09256711	     -0.49094423	      0.98037196	      1.05622767	     -0.54881368
      2.76000000	     -0.64334646	     -5.56512638	      1.69753047	      0.92866330	      0.94274551	     -0.30687622	     11.49831999	      8.76508051	     -9.93246892	    -38.68316975	     24.33736170	     28.36928095	     -3.45455453	      4.61434875	    -85.53324920	     -1.89341522	    -11.52444617	      7.69643577	      3.83136632	    -20.49149377	    -23.15143684	     -1.04770641	     95.71718516	     88.55066532	    -18.72762037	    -21.93337634	      2.11834232	    104.59890849	    118.49708829	      0.00000000	      0.00000000	      0.00000000	      0.00000000	      0.00000000	      0.00000000	      0.00000000	      0.00000000	      0.93414928	      0.95692095	     -0.43075626	      0.93702397	      0.97243530	     -0.19262119	      0.77130463	      0.99522859	     -0.35870756	      0.76616346	      1.00023598	     -0.25970862	      0.90132971	      0.72949973	     -0.13215388	      0.96871205	      0.65228661	     -0.14975287	      0.91853343	      0.55453673	     -0.16868422	      0.94020920	      0.76355130	     -0.47331095	      1.02868044	      0.68269839	     -0.46421249	      1.00886821	      0.56828725	     -0.44863455	      0.91446250	      0.34078356	     -0.24899354	      0.85606771	      0.27754013	     -0.20532286	      0.82334728	      0.18129387	     -0.27701066	      0.99036739	      0.39431784	     -0.38589428	      0.89492359	      0.38782291	     -0.44984794	      0.82325373	      0.29826530	     -0.38507837	      0.67970722	      0.10946866	     -0.30028555	      0.90233357	      0.06791722	     -0.30483309	      0.84762850	      0.04971334	     -0.20429041	      0.67102931	      0.31469918	     -0.36855967	      0.75906810	      0.11392539	     -0.38272180	      0.71624358	      0.15058168	     -0.47871274	      0.92489175	      1.44644333	     -0.45796750	      0.93328955	      1.42815772	     -0.15342237	      1.01370659	      1.36335602	     -0.29276973	      0.88315138	      1.47342938	     -0.29982088	      0.88288380	      1.32165047	     -0.05745736	      0.80846619	      1.26983553	     -0.07249671	      0.84333510	      1.21001177	     -0.00922266	      0.81165417	      1.15118371	      0.02351757	      0.76989142	      1.13137377	     -0.03840272	      0.84738604	      1.34664024	     -0.54330233	      0.78641305	      1.29666701	     -0.50681596	      0.81074165	      1.25958962	     -0.58295232	      0.77093826	      1.18611452	     -0.61296171	      0.74464708	      1.16142430	     -0.54815817	      0.91262789	      1.09805836	     -0.00367062	      1.00644675	      1.05360747	     -0.09832615	      0.97271750	      0.99766804	     -0.06516501	      0.88471060	      1.15584617	     -0.58500134	      0.98657374	      1.09053509	     -0.49178995	      0.97063708	      1.05640900	     -0.55294845
      2.77000000	     -0.84067881	     -5.15921993	      1.36672585	      0.92818682	      0.94486826	     -0.30657580	      9.53460146	      8.54969671	     -9.17222768	    -37.07076167	     24.36630521	     30.18719526	     -3.02462406	      4.11491575	    -84.22911414	     -0.75743088	    -11.49302970	      7.18674857	      5.24439976	    -19.64872387	    -23.59501424	     -0.95404930	     96.75495161	     87.50959085	    -19.55378391	    -21.93488709	      2.00609309	    104.50063652	    119.87232225	      0.00000000	      0.00000000	      0.00000000	      0.00000000	      0.00000000	      0.00000000	      0.00000000	      0.00000000	      0.93421956	      0.95946938	     -0.43022429	      0.93559381	      0.97336137	     -0.19192571	      0.77063474	      0.99772926	     -0.35896079	      0.76556560	      1.00278927	     -0.26046023	      0.89508856	      0.72976899	     -0.13302631	      0.95946173	      0.65064740	     -0.15050444	      0.90563196	      0.55405635	     -0.16926002	      0.94328049	      0.76825488	     -0.47406122	      1.03387721	      0.69012902	     -0.46451347	      1.01722821	      0.57511797	     -0.44827674	      0.89729522	      0.34010013	     -0.24906027	      0.83789106	      0.27773624	     -0.20501068	      0.80431436	      0.18181487	     -0.27694382	      1.00616475	      0.40009678	     -0.38551799	      0.91081520	      0.38950272	     -0.44900559	      0.84392648	      0.29585247	     -0.38435981	      0.65965746	      0.11028064	     -0.29961951	      0.88218882	      0.06796336	     -0.30450886	      0.82746297	      0.04940822	     -0.20416742	      0.68972166	      0.30359034	     -0.36832271	      0.79222250	      0.10964529	     -0.38051714	      0.74700648	      0.14233793	     -0.47713571	      0.92291144	      1.44897904	     -0.45828995	      0.93522332	      1.43041144	     -0.15411293	      1.01394046	      1.36562231	     -0.29437156	      0.88248253	      1.47494355	     -0.29964627	      0.89023095	      1.32308816	     -0.05687329	      0.81529963	      1.27097635	     -0.06937075	      0.85237213	      1.21130227	     -0.00792883	      0.82257347	      1.15181338	      0.02565512	      0.77960075	      1.13108878	     -0.03520201	      0.84259036	      1.35085895	     -0.54257546	      0.78255451	      1.30206460	     -0.50399843	      0.80392540	      1.26448981	     -0.58125735	      0.76211478	      1.19173867	     -0.61037848	      0.73654835	      1.16780401	     -0.54465030	      0.92419909	      1.10150569	     -0.00430968	      1.01701807	      1.06017533	     -0.10089763	      0.98543615	      1.00301979	     -0.06843202	      0.87587791	      1.15966765	     -0.58398277	      0.97751240	      1.09135501	     -0.49394122	      0.96088871	      1.05853056	     -0.55628915
      2.78000000	     -1.21144798	     -4.53124682	      0.95157202	      0.92793176	      0.94723635	     -0.30603880	      7.65336807	      8.09500485	     -8.34788069	    -35.25060847	     24.20296806	     31.95362580	     -2.45569013	      3.39003495	    -82.35563261	      0.11427367	    -11.23304595	      6.36202451	      6.61795239	    -18.92940188	    -23.98280271	     -0.89338731	     98.05373903	     86.20441843	    -20.63861646	    -22.12256654	      1.89903088	    104.75373762	    120.55152492	      0.00000000	      0.00000000	      0.00000000	      0.00000000	      0.00000000	      0.00000000	      0.00000000	      0.00000000	      0.93465991	      0.96228833	     -0.42951371	      0.93423548	      0.97424914	     -0.19072659	      0.77011751	      1.00115468	     -0.35878601	      0.76546918	      1.00564864	     -0.26104481	      0.88785221	      0.73027698	     -0.13426788	      0.94941981	      0.64925286	     -0.15154584	      0.89221148	      0.55427521	     -0.17023802	      0.94656350	      0.77362610	     -0.47504973	      1.03888958	      0.69807847	     -0.46472182	      1.02497006	      0.58250963	     -0.44826262	      0.87995638	      0.33994457	     -0.24949798	      0.81946359	      0.27847528	     -0.20505300	      0.78515316	      0.18257489	     -0.27689328	      1.02112697	      0.40610456	     -0.38514480	      0.92612797	      0.39056377	     -0.44804018	      0.86480708	      0.29296067	     -0.38352570	      0.63995282	      0.11151569	     -0.29904390	      0.86200356	      0.06803032	     -0.30424309	      0.80724452	      0.04920351	     -0.20402453	      0.70928458	      0.29095734	     -0.36794800	      0.82620649	      0.10542723	     -0.37764592	      0.77883600	      0.13325939	     -0.47483671	      0.92092362	      1.45191081	     -0.45864913	      0.93749079	      1.43352415	     -0.15501590	      1.01436421	      1.36860203	     -0.29611611	      0.88248489	      1.47738326	     -0.29984608	      0.89701653	      1.32582319	     -0.05672129	      0.82174801	      1.27358801	     -0.06557078	      0.86117545	      1.21362246	     -0.00697340	      0.83301812	      1.15371965	      0.02724607	      0.78892824	      1.13202825	     -0.03256225	      0.83753199	      1.35581666	     -0.54164416	      0.77848193	      1.30764099	     -0.50109635	      0.79699794	      1.27035962	     -0.57972812	      0.75355985	      1.19832273	     -0.60803935	      0.72870923	      1.17508947	     -0.54157921	      0.93529420	      1.10677555	     -0.00539180	      1.02738191	      1.06861668	     -0.10345950	      0.99794681	      1.01022517	     -0.07208357	      0.86719442	      1.16507523	     -0.58275969	      0.96649443	      1.09429766	     -0.49701646	      0.95092449	      1.06196315	     -0.55813277
